<?xml version="1.0" encoding="utf-8"?>
<!-- Generator: Adobe Illustrator 26.0.2, SVG Export Plug-In . SVG Version: 6.00 Build 0)  -->
<svg version="1.1" id="Layer_1" xmlns="http://www.w3.org/2000/svg" xmlns:xlink="http://www.w3.org/1999/xlink" x="0px" y="0px"
	 viewBox="0 0 525.1 217.4" style="enable-background:new 0 0 525.1 217.4;" xml:space="preserve">
<path d="M523.7,52.8c-4.6-15.9-24.3-24.1-37.4-29.6c-2.5-1-5.5-2.3-7-3.1c0-0.1-0.1-0.1-0.1-0.2c-5.2-12.5-8.6-18.6-14.4-19.5
	L462.1,0l-2.2,1.6c-7.1,4.9-10.7,13-14.3,20.9c-2.3,5.1-4.5,9.9-7.3,13.2c-7.3,8.6-14.3,12.7-22.6,16.4c-4.1,1.8-10.7,3-17.7,4.2
	c-16,2.8-15.6,0.5-25.4,14.3c0,0-5.5,4.7,4.8,13.6c13.7,11.9,4.2,20.2,0.5,29.1s-14.9,11.2-17.9-1.7c-3-12.9-10.2-15.1-10.2-15.1
	c-12-7.1-17.3-4.4-23.9,0.5c-2.6,1.9-5.5,4-10.3,6c-7.2,3-16.6,3.5-26.5,4.1c-6.4,0.3-12.9,0.7-19.2,1.8
	c-13.5,2.3-20.3,8.1-27.5,14.1c-4.1,3.4-8.3,7-14.3,10.5c-8.2,4.7-17.8,6.2-28,7.8c-7.6,1.2-15.6,2.4-23.3,5.1
	c-0.6,0.2-3.5,1.1-6.4,1.9l-6.8,1.5c-34,7.8-43.8-2.1-43.8-2.1c-0.4-0.5-0.8-1-1.2-1.4c-2.8-3.6-7.6-9.5-16.6-8.6
	c-13.4,1.3-21.4,10.7-27.8,18.2c-4.8,5.6-8.9,10.5-13.8,10.9c-3,0.3-11.3-4.9-16.8-8.4c-11.7-7.3-23.8-14.9-33.8-9.5
	C0.6,154-0.2,167.6,0,177.5c0.2,9.9,1.2,14.6,3.7,18c3.6,4.7,8.8,4.7,12.9,4.7c2.6,0,5.5,0,9.1,0.8c8.5,1.9,17.6,4.3,27.2,6.9
	c9.5,2.6,19.3,5.2,29.1,7.4c2.1,0.5,4.1,0.8,6.1,1.2c27.3,4.2,49.1-5.2,68.5-13.6c6.6-2.9,12.9-5.6,19.2-7.7
	c12.1-4.1,32.2-9.9,45.5-12.3c4.2-0.8,10.5-2.3,17.8-4c15.3-3.6,41-9.7,48.5-8.5c17.6,2.7,55.8-10.8,73-25.9
	c0,0,30.8-20.4,75.6-23.4c0,0,9.6-0.2,26.2-4.5C496.7,107.7,532.9,84.5,523.7,52.8L523.7,52.8z"/>
</svg>
